<svg width="33" height="33" viewBox="0 0 33 33" fill="none" xmlns="http://www.w3.org/2000/svg">
<path d="M14 3.38827C14 1.69685 14.6726 0.820081 15.32 0.36792C16.0225 -0.12264 16.9775 -0.12264 17.68 0.36792C18.3274 0.820081 19 1.69685 19 3.38827C19 5.7848 18.0998 8.53777 17.2918 10.4453C16.9785 11.1849 16.0215 11.1849 15.7082 10.4453C14.9002 8.53777 14 5.7848 14 3.38827Z" fill="black"/>
<path d="M14 29.6117C14 31.3031 14.6726 32.1799 15.32 32.6321C16.0225 33.1226 16.9775 33.1226 17.68 32.6321C18.3274 32.1799 19 31.3031 19 29.6117C19 27.2152 18.0998 24.4622 17.2918 22.5547C16.9785 21.8151 16.0215 21.8151 15.7082 22.5547C14.9002 24.4622 14 27.2152 14 29.6117Z" fill="black"/>
<path d="M3.38827 19C1.69685 19 0.820082 18.3274 0.36792 17.68C-0.12264 16.9775 -0.12264 16.0225 0.36792 15.32C0.820081 14.6726 1.69685 14 3.38827 14C5.7848 14 8.53777 14.9002 10.4453 15.7082C11.1849 16.0215 11.1849 16.9785 10.4453 17.2918C8.53777 18.0998 5.7848 19 3.38827 19Z" fill="black"/>
<path d="M29.6117 19C31.3031 19 32.1799 18.3274 32.6321 17.68C33.1226 16.9775 33.1226 16.0225 32.6321 15.32C32.1799 14.6726 31.3031 14 29.6117 14C27.2152 14 24.4622 14.9002 22.5547 15.7082C21.8151 16.0215 21.8151 16.9785 22.5547 17.2918C24.4622 18.0998 27.2152 19 29.6117 19Z" fill="black"/>
<path d="M8.99646 27.5392C7.80044 28.7352 6.70488 28.8796 5.92733 28.7415C5.08376 28.5917 4.40844 27.9164 4.25862 27.0728C4.12053 26.2952 4.26491 25.1997 5.46092 24.0037C7.15552 22.3091 9.73868 20.9989 11.6588 20.2215C12.4034 19.92 13.0801 20.5967 12.7787 21.3413C12.0012 23.2614 10.6911 25.8446 8.99646 27.5392Z" fill="black"/>
<path d="M27.5392 8.99634C28.7352 7.80032 28.8796 6.70476 28.7415 5.92721C28.5917 5.08364 27.9164 4.40832 27.0728 4.2585C26.2952 4.12041 25.1997 4.26478 24.0037 5.4608C22.3091 7.1554 20.9989 9.73856 20.2215 11.6587C19.92 12.4033 20.5967 13.08 21.3413 12.7785C23.2614 12.0011 25.8446 10.6909 27.5392 8.99634Z" fill="black"/>
<path d="M27.5392 24.0035C28.7352 25.1996 28.8796 26.2951 28.7415 27.0727C28.5917 27.9162 27.9164 28.5916 27.0728 28.7414C26.2952 28.8795 25.1997 28.7351 24.0037 27.5391C22.3091 25.8445 20.9989 23.2613 20.2215 21.3412C19.92 20.5966 20.5967 19.9199 21.3413 20.2213C23.2614 20.9988 25.8446 22.3089 27.5392 24.0035Z" fill="black"/>
<path d="M8.99646 5.46081C7.80044 4.2648 6.70488 4.12042 5.92733 4.25851C5.08376 4.40833 4.40844 5.08365 4.25862 5.92722C4.12053 6.70477 4.26491 7.80033 5.46092 8.99635C7.15553 10.6909 9.73868 12.0011 11.6588 12.7785C12.4034 13.08 13.0801 12.4033 12.7787 11.6587C12.0012 9.73857 10.6911 7.15541 8.99646 5.46081Z" fill="black"/>
<circle cx="16.5" cy="16.5" r="4.5" fill="black"/>
</svg>
