<svg width="260" height="260" viewBox="0 0 260 260" fill="none" xmlns="http://www.w3.org/2000/svg">
<path d="M179.646 235.941C174.861 238.285 170.174 239.359 165.486 239.359C154.842 239.359 144.49 233.695 133.65 225.395C132.478 224.516 131.306 223.637 130.135 222.66C128.963 223.539 127.889 224.418 126.717 225.297C115.877 233.695 105.525 239.359 94.8807 239.359C90.2908 239.359 85.6033 238.285 80.8182 235.941C64.7049 228.422 60.7987 213.09 60.408 193.266C60.408 191.996 60.408 190.727 60.408 189.457C59.2362 189.164 58.1619 188.871 56.9901 188.578C37.8494 183.793 23.8846 176.566 19.8807 159.281C15.9744 142.094 25.4471 129.203 40.6815 116.801C41.5604 116.02 42.5369 115.238 43.4159 114.555C42.8299 113.188 42.244 111.918 41.658 110.648C33.4549 92.9727 30.4276 77.3477 41.4627 63.4805C52.4979 49.6133 68.4158 49.0273 87.7518 53.1289C89.0213 53.4219 90.3885 53.7148 91.658 54.0078C92.244 52.8359 92.8299 51.6641 93.4158 50.4922C102.303 33.0117 112.556 21 130.232 21C148.006 21 158.162 33.0117 167.146 50.4922C167.732 51.6641 168.318 52.8359 168.904 54.0078C170.174 53.7148 171.541 53.4219 172.81 53.1289C192.049 49.125 207.869 49.6133 219.099 63.4805C230.037 77.3477 227.01 92.9727 218.806 110.648C218.318 111.918 217.635 113.188 217.049 114.457C218.025 115.238 219.002 116.02 219.881 116.801C235.115 129.203 244.588 142.094 240.584 159.281C236.58 176.566 222.615 183.793 203.279 188.578C202.205 188.871 201.131 189.164 200.056 189.359C200.056 190.727 200.056 191.996 200.056 193.266C199.666 213.09 195.76 228.422 179.646 235.941ZM107.478 57.5234C107.478 57.5234 107.478 57.5234 107.381 57.7188C114.803 59.2812 122.517 60.5508 130.232 60.5508C137.947 60.5508 145.662 59.2812 153.084 57.7188L152.986 57.5234C147.615 46.8789 142.342 36.7227 130.232 36.7227C118.221 36.7227 112.849 46.8789 107.478 57.5234ZM187.459 88.0898C192.439 94.2422 198.299 99.5156 204.353 104.496C204.353 104.398 204.451 104.398 204.646 103.812C209.334 93.168 214.217 82.6211 206.697 73.3438C199.178 63.9688 187.947 66.0195 176.326 68.4609C176.326 68.4609 176.326 68.4609 175.74 68.5586C179.06 75.3945 182.674 82.1328 187.459 88.0898ZM55.8182 103.812C55.8182 103.812 55.8182 103.812 56.1112 104.496C62.1659 99.5156 68.0252 94.2422 72.908 88.0898C77.6932 82.0352 81.4041 75.3945 84.7244 68.5586C84.7244 68.5586 84.6268 68.5586 84.1385 68.4609C72.5174 66.1172 61.2869 63.9688 53.6698 73.3438C46.2479 82.6211 51.1307 93.168 55.8182 103.812ZM105.33 186.234C114.021 190.434 122.322 196.586 130.232 202.641C138.045 196.586 146.443 190.434 155.135 186.234C164.314 181.84 174.666 179.105 184.334 176.859C184.431 166.898 184.724 156.645 186.971 146.781C189.021 137.309 193.123 127.934 197.42 118.949C189.51 112.699 181.599 105.863 175.252 97.9531C169.002 90.1406 164.314 81.0586 160.017 72.1719C150.349 74.418 140.193 76.2734 130.232 76.2734C120.174 76.2734 110.017 74.418 100.349 72.1719C96.0526 81.1562 91.4627 90.1406 85.1151 97.9531C78.8651 105.766 70.9549 112.602 63.0448 118.949C67.3416 127.934 71.3455 137.211 73.5916 146.684C75.7401 156.547 76.1307 166.898 76.1307 176.859C85.8963 179.105 96.0526 181.742 105.33 186.234ZM35.2127 155.766C37.9471 167.582 49.1776 170.414 60.408 173.246C60.408 165.629 59.9198 157.816 58.2596 150.297C56.5994 142.973 53.6698 135.844 50.4471 129.008C41.4627 136.625 32.576 144.047 35.2127 155.766ZM202.205 150.199C200.545 157.816 200.056 165.629 200.056 173.246C211.482 170.414 222.615 167.484 225.252 155.766C227.889 144.047 219.099 136.625 209.92 129.008C206.795 135.844 203.865 142.973 202.205 150.199ZM172.908 221.977C183.748 216.703 184.041 204.984 184.334 193.168V192.875C176.814 194.73 169.197 196.879 162.068 200.297C155.33 203.617 148.982 208.012 142.928 212.602C142.928 212.602 143.025 212.699 143.416 212.992C152.791 220.023 161.971 227.055 172.908 221.977ZM87.5565 221.977C98.3963 227.055 107.674 220.023 117.049 213.09C117.146 212.895 117.342 212.797 117.537 212.602C111.482 208.012 105.135 203.617 98.3963 200.297C91.2674 196.879 83.6502 194.73 76.1307 192.875V193.168C76.4237 204.984 76.8143 216.703 87.5565 221.977Z" fill="black"/>
</svg>
