<svg width="41" height="41" viewBox="0 0 41 41" fill="none" xmlns="http://www.w3.org/2000/svg">
<rect width="41" height="41" rx="12" fill="#D4A04E"/>
<path d="M18 7.38827C18 5.69685 18.6726 4.82008 19.32 4.36792C20.0225 3.87736 20.9775 3.87736 21.68 4.36792C22.3274 4.82008 23 5.69685 23 7.38827C23 9.7848 22.0998 12.5378 21.2918 14.4453C20.9785 15.1849 20.0215 15.1849 19.7082 14.4453C18.9002 12.5378 18 9.7848 18 7.38827Z" fill="white"/>
<path d="M18 33.6117C18 35.3031 18.6726 36.1799 19.32 36.6321C20.0225 37.1226 20.9775 37.1226 21.68 36.6321C22.3274 36.1799 23 35.3031 23 33.6117C23 31.2152 22.0998 28.4622 21.2918 26.5547C20.9785 25.8151 20.0215 25.8151 19.7082 26.5547C18.9002 28.4622 18 31.2152 18 33.6117Z" fill="white"/>
<path d="M7.38827 23C5.69685 23 4.82008 22.3274 4.36792 21.68C3.87736 20.9775 3.87736 20.0225 4.36792 19.32C4.82008 18.6726 5.69685 18 7.38827 18C9.7848 18 12.5378 18.9002 14.4453 19.7082C15.1849 20.0215 15.1849 20.9785 14.4453 21.2918C12.5378 22.0998 9.7848 23 7.38827 23Z" fill="white"/>
<path d="M33.6117 23C35.3031 23 36.1799 22.3274 36.6321 21.68C37.1226 20.9775 37.1226 20.0225 36.6321 19.32C36.1799 18.6726 35.3031 18 33.6117 18C31.2152 18 28.4622 18.9002 26.5547 19.7082C25.8151 20.0215 25.8151 20.9785 26.5547 21.2918C28.4622 22.0998 31.2152 23 33.6117 23Z" fill="white"/>
<path d="M12.9965 31.5392C11.8004 32.7352 10.7049 32.8796 9.92733 32.7415C9.08376 32.5917 8.40844 31.9164 8.25862 31.0728C8.12053 30.2952 8.26491 29.1997 9.46092 28.0037C11.1555 26.3091 13.7387 24.9989 15.6588 24.2215C16.4034 23.92 17.0801 24.5967 16.7787 25.3413C16.0012 27.2614 14.6911 29.8446 12.9965 31.5392Z" fill="white"/>
<path d="M31.5392 12.9963C32.7352 11.8003 32.8796 10.7048 32.7415 9.92721C32.5917 9.08364 31.9164 8.40832 31.0728 8.2585C30.2952 8.12041 29.1997 8.26478 28.0037 9.4608C26.3091 11.1554 24.9989 13.7386 24.2215 15.6587C23.92 16.4033 24.5967 17.08 25.3413 16.7785C27.2614 16.0011 29.8446 14.6909 31.5392 12.9963Z" fill="white"/>
<path d="M31.5392 28.0035C32.7352 29.1996 32.8796 30.2951 32.7415 31.0727C32.5917 31.9162 31.9164 32.5916 31.0728 32.7414C30.2952 32.8795 29.1997 32.7351 28.0037 31.5391C26.3091 29.8445 24.9989 27.2613 24.2215 25.3412C23.92 24.5966 24.5967 23.9199 25.3413 24.2213C27.2614 24.9988 29.8446 26.3089 31.5392 28.0035Z" fill="white"/>
<path d="M12.9965 9.46081C11.8004 8.2648 10.7049 8.12042 9.92733 8.25851C9.08376 8.40833 8.40844 9.08365 8.25862 9.92722C8.12053 10.7048 8.26491 11.8003 9.46092 12.9963C11.1555 14.6909 13.7387 16.0011 15.6588 16.7785C16.4034 17.08 17.0801 16.4033 16.7787 15.6587C16.0012 13.7386 14.6911 11.1554 12.9965 9.46081Z" fill="white"/>
<circle cx="20.5" cy="20.5" r="4.5" fill="#FF9B04"/>
</svg>
