<svg width="260" height="260" viewBox="0 0 260 260" fill="none" xmlns="http://www.w3.org/2000/svg">
<g opacity="0.3">
<path d="M36.183 52.3016C36.183 46.0599 41.263 41 47.5294 41H175.176C181.443 41 186.523 46.0599 186.523 52.3016C186.523 58.5433 181.443 63.6032 175.176 63.6032H47.5294C41.263 63.6032 36.183 58.5433 36.183 52.3016Z" fill="black"/>
<path d="M80.1503 83.381C80.1503 77.1393 85.2303 72.0794 91.4967 72.0794H219.144C225.41 72.0794 230.49 77.1393 230.49 83.381C230.49 89.6226 225.41 94.6825 219.144 94.6825H91.4967C85.2303 94.6825 80.1503 89.6226 80.1503 83.381Z" fill="black"/>
<path d="M54.6209 114.46C54.6209 108.219 59.7009 103.159 65.9673 103.159H193.614C199.881 103.159 204.961 108.219 204.961 114.46C204.961 120.702 199.881 125.762 193.614 125.762H65.9673C59.7009 125.762 54.6209 120.702 54.6209 114.46Z" fill="black"/>
<path d="M22 145.54C22 139.298 27.08 134.238 33.3464 134.238H160.993C167.26 134.238 172.34 139.298 172.34 145.54C172.34 151.781 167.26 156.841 160.993 156.841H33.3464C27.08 156.841 22 151.781 22 145.54Z" fill="black"/>
<path d="M54.6209 176.619C54.6209 170.377 59.7009 165.317 65.9673 165.317H193.614C199.881 165.317 204.961 170.377 204.961 176.619C204.961 182.861 199.881 187.921 193.614 187.921H65.9673C59.7009 187.921 54.6209 182.861 54.6209 176.619Z" fill="black"/>
<path d="M126.954 207.698C126.954 201.457 132.034 196.397 138.301 196.397H227.654C233.92 196.397 239 201.457 239 207.698C239 213.94 233.92 219 227.654 219H138.301C132.034 219 126.954 213.94 126.954 207.698Z" fill="black"/>
</g>
<path d="M36.2188 52.3016C36.2188 46.0599 41.3115 41 47.5938 41H140.016C146.298 41 151.391 46.0599 151.391 52.3016C151.391 58.5433 146.298 63.6032 140.016 63.6032H47.5938C41.3115 63.6032 36.2188 58.5433 36.2188 52.3016Z" fill="black"/>
<path d="M80.2969 83.381C80.2969 77.1393 85.3896 72.0794 91.6719 72.0794H184.094C190.376 72.0794 195.469 77.1393 195.469 83.381C195.469 89.6226 190.376 94.6825 184.094 94.6825H91.6719C85.3896 94.6825 80.2969 89.6226 80.2969 83.381Z" fill="black"/>
<path d="M54.7031 114.46C54.7031 108.219 59.7959 103.159 66.0781 103.159H158.5C164.782 103.159 169.875 108.219 169.875 114.46C169.875 120.702 164.782 125.762 158.5 125.762H66.0781C59.7959 125.762 54.7031 120.702 54.7031 114.46Z" fill="black"/>
<path d="M22 145.54C22 139.298 27.0928 134.238 33.375 134.238H125.797C132.079 134.238 137.172 139.298 137.172 145.54C137.172 151.781 132.079 156.841 125.797 156.841H33.375C27.0928 156.841 22 151.781 22 145.54Z" fill="black"/>
<path d="M54.7031 176.619C54.7031 170.377 59.7959 165.317 66.0781 165.317H158.5C164.782 165.317 169.875 170.377 169.875 176.619C169.875 182.861 164.782 187.921 158.5 187.921H66.0781C59.7959 187.921 54.7031 182.861 54.7031 176.619Z" fill="black"/>
<path d="M127.219 207.698C127.219 201.457 132.312 196.397 138.594 196.397H192.625C198.907 196.397 204 201.457 204 207.698C204 213.94 198.907 219 192.625 219H138.594C132.312 219 127.219 213.94 127.219 207.698Z" fill="black"/>
</svg>
