<svg width="260" height="260" viewBox="0 0 260 260" fill="none" xmlns="http://www.w3.org/2000/svg">
<g clip-path="url(#clip0_1_263)">
<path d="M127.127 120.145C127.805 120.113 128.484 120.092 129.162 120.084C140.417 119.933 149.915 122.747 158.364 130.517C163.862 135.74 167.114 142.294 167.117 149.911C167.124 168.337 150.926 177.251 134.426 177.328C130.847 177.335 125.505 177.647 122.087 177.196C80.5856 171.723 86.7166 123.251 127.127 120.145ZM132.879 167.946C140.693 168.089 147.243 166.941 153.101 161.406C160.503 154.412 159.398 144.891 152.649 137.899C146.181 131.199 136.881 128.807 127.807 129.361C123.284 129.967 119.499 130.779 115.478 132.68C108.123 136.158 101.768 143.956 102.92 152.452C103.457 156.411 106.101 160.48 109.333 162.789C116.736 168.656 123.914 168.021 132.879 167.946Z" fill="black"/>
<path d="M124.876 141.338C127.744 141.491 127.739 142.115 129.946 142.516C131.988 142.888 135.118 139.77 137.382 142.618C137.949 143.331 138.047 143.563 138.443 144.375C138.046 148.221 136.307 148.233 133.895 150.765C134.105 152.617 134.626 155.153 134.028 156.851L133.62 156.588C131.259 157.914 129.221 158.252 126.994 156.389C126.661 156.11 126.687 156.114 126.273 155.944L126.144 155.892C126.252 154.404 126.641 151.669 126.658 150.371C125.604 150.022 125.239 149.659 124.456 148.972C122.114 146.919 121.172 144.883 123.156 142.247C123.741 141.956 124.319 141.681 124.876 141.338Z" fill="black"/>
<path d="M126.144 155.893L126.273 155.945C126.687 156.114 126.661 156.11 126.994 156.389C129.221 158.252 131.259 157.914 133.62 156.588L134.028 156.851C132.719 159.782 129.616 158.944 127.201 158.202C126.764 157.452 126.279 156.747 126.144 155.893Z" fill="black" fill-opacity="0.937255"/>
<path d="M83.1553 121.716C85.1318 121.432 87.2929 121.612 89.0575 122.587C96.9426 126.945 93.5093 138.116 85.9416 140.332C72.0862 141.833 73.0648 123.952 83.1553 121.716Z" fill="black"/>
<path d="M173.872 121.739C177.367 121.318 180.556 121.949 182.764 124.869C187.11 130.617 186.403 138.064 178.689 140.234C166.864 142.14 162.997 124.089 173.872 121.739Z" fill="black"/>
<path d="M40 121.119C40.776 119.887 41.898 110.478 42.7469 108.024C45.7777 99.0325 51.0979 91.2361 58.4017 85.1712C58.8185 84.8956 61.0379 82.5896 60.9958 82.1852C59.816 70.852 59.1625 60.1555 60.8733 48.7237C62.8792 35.3207 71.7296 13.9411 89.1054 22.4762C92.7152 24.2495 95.3895 27.9831 97.3408 31.3566C101.845 38.595 103.091 47.0997 104.657 55.3258C104.736 55.7406 104.952 56.6034 105.25 56.8689C108.221 55.5931 111.794 53.5025 114.83 52.5249C125.453 49.1041 136.516 49.2596 146.995 53.1404C150.11 54.2937 153.656 56.6282 156.215 57.5215C156.176 55.3804 156.867 52.3706 157.243 50.2944C158.883 41.2228 161.622 32.074 168.089 25.2206C175.682 17.1749 187.542 20.2159 193.054 29.0272C195.538 32.9979 197.254 37.6647 198.652 42.1236C200.125 48.343 200.891 55.4181 201.047 61.8064C201.082 65.1304 201.092 68.3704 200.906 71.7326C200.717 75.1421 199.825 78.8859 199.729 82.2598C199.721 82.564 200.473 83.3683 200.738 83.6154C203.57 86.259 207.684 89.8933 210.105 92.8669C216.736 101.014 219.855 113.424 220.122 123.723C220.309 131.008 218.651 139.1 215.658 145.715C214.97 147.237 211.811 151.842 211.892 152.522C212.155 154.699 214.96 159.109 215.805 161.678C220.238 175.144 220.714 190.78 216.036 204.233C214.812 207.754 212.278 211.558 210.658 215.106C212.358 218.842 214.174 222.231 215.348 226.208C217.677 234.093 218.511 249.522 215.688 257.132C215.587 257.407 215.474 257.678 215.352 257.945H201.883C201.452 254.052 203.153 251.677 203.569 247.79C204.284 242.098 203.565 236.548 202.224 231.019C201.673 228.108 200.085 224.371 198.556 221.883C194.38 215.086 194.558 213.154 199.136 206.883C205.001 198.846 206.4 187.618 205.409 177.905C205.082 174.694 204.123 169.744 202.895 166.663C201.818 163.899 200.565 161.207 199.143 158.603C198.413 157.238 197.501 155.912 196.883 154.503C194.962 150.253 198.517 146.935 200.838 143.716C207.672 134.237 207.928 119.925 203.535 109.33C198.601 97.4306 187.765 88.4497 174.736 87.1512C170.215 86.7007 168.091 88.3961 163.389 86.5536C161.389 82.8344 160.298 79.4684 157.22 76.0162C151.354 69.4369 141.045 64.4677 132.358 63.8752C122.91 63.4254 112.836 67.2615 105.82 73.5582C102.853 76.2209 101.503 78.1523 99.5568 81.5756C98.7234 83.0418 97.8884 85.4063 96.7743 86.5223C95.0265 88.2733 91.1648 87.142 89.0072 87.1447C82.1546 86.6225 72.8618 90.3733 67.7199 94.6772C60.1302 101.029 54.6766 111.099 54.2073 121.092C53.8045 129.669 54.4887 136.206 59.378 143.548C60.1695 144.737 61.69 146.111 62.6213 147.247C66.8637 152.42 63.3186 155.407 61.0063 159.966C59.6698 162.601 57.9904 166.738 57.1749 169.536C53.4595 182.285 54.4005 194.724 61.2661 206.248C62.8481 208.905 65.367 210.482 65.4123 214.135C65.5014 218.616 61.6231 221.95 60.2663 225.944C57.8946 232.926 56.2351 241.642 57.5466 248.958C58.1932 252.564 59.4006 253.98 59.1061 257.945H45.541C45.4614 257.708 45.3859 257.467 45.3144 257.229C42.414 247.707 43.0409 235.921 45.6099 226.337C46.6487 222.462 48.4435 218.582 50.3288 215.049C48.0911 211.367 44.0834 203.213 43.1429 198.847C41.0505 188.504 41.1682 177.391 43.4475 167.095C44.5054 162.316 46.8367 158.299 48.5124 153.801C48.6816 153.347 48.67 152.483 48.4273 152.041C46.353 148.261 43.9498 144.6 42.638 140.457C41.9975 138.628 40.7084 129.068 40 127.99V121.119ZM170.774 73.3544C173.76 73.5953 176.74 73.8997 179.713 74.267C182.173 74.4874 184.662 74.6986 186.951 75.7187C188.755 63.2569 187.962 47.3118 181.203 35.9834C180.806 35.3175 179.541 34.3208 178.741 34.1479C174.802 36.9898 171.28 47.1027 170.671 51.9962C170.012 57.2995 169.171 64.5695 169.535 69.9465C169.566 70.41 170.54 72.7748 170.774 73.3544ZM74.0854 75.5476C76.1745 74.5878 79.5752 74.4003 81.8987 74.1806C84.7349 73.8339 87.1187 73.5741 89.962 73.4778C90.3624 72.6249 91.3766 70.7034 91.4747 69.876C91.7603 67.4666 91.6037 64.78 91.372 62.3509C90.5253 53.4725 89.6787 43.4001 83.9795 36.137C83.502 35.5284 82.9265 34.6169 82.228 34.301C82.041 34.2149 81.8446 34.1513 81.6427 34.1112C80.5954 35.1035 79.3021 36.4486 78.6594 37.7423C73.436 48.2555 71.9718 64.2747 74.0854 75.5476Z" fill="black"/>
</g>
<defs>
<clipPath id="clip0_1_263">
<rect width="181" height="255.945" fill="white" transform="translate(40 2)"/>
</clipPath>
</defs>
</svg>
