<svg width="768" height="512" viewBox="0 0 768 512" fill="none" xmlns="http://www.w3.org/2000/svg">
<path d="M720 0C746.51 1.09365e-05 768 21.4903 768 48V464C768 490.51 746.51 512 720 512H48C21.4903 512 1.67418e-06 490.51 0 464V48C1.37881e-05 21.4903 21.4903 1.15877e-06 48 0H720ZM167 48C152.641 48 141 59.6406 141 74V438C141 452.359 152.641 464 167 464H601C615.359 464 627 452.359 627 438V74C627 59.6406 615.359 48 601 48H167ZM72 396C58.7452 396 48 406.745 48 420V439C48 452.255 58.7452 463 72 463H91C104.255 463 115 452.255 115 439V420C115 406.745 104.255 396 91 396H72ZM677 396C663.745 396 653 406.745 653 420V439C653 452.255 663.745 463 677 463H696C709.255 463 720 452.255 720 439V420C720 406.745 709.255 396 696 396H677ZM72 280C58.7452 280 48 290.745 48 304V323C48 336.255 58.7452 347 72 347H91C104.255 347 115 336.255 115 323V304C115 290.745 104.255 280 91 280H72ZM677 280C663.745 280 653 290.745 653 304V323C653 336.255 663.745 347 677 347H696C709.255 347 720 336.255 720 323V304C720 290.745 709.255 280 696 280H677ZM72 164C58.7452 164 48 174.745 48 188V207C48 220.255 58.7452 231 72 231H91C104.255 231 115 220.255 115 207V188C115 174.745 104.255 164 91 164H72ZM677 164C663.745 164 653 174.745 653 188V207C653 220.255 663.745 231 677 231H696C709.255 231 720 220.255 720 207V188C720 174.745 709.255 164 696 164H677ZM72 48C58.7452 48 48 58.7452 48 72V91C48 104.255 58.7452 115 72 115H91C104.255 115 115 104.255 115 91V72C115 58.7452 104.255 48 91 48H72ZM677 48C663.745 48 653 58.7452 653 72V91C653 104.255 663.745 115 677 115H696C709.255 115 720 104.255 720 91V72C720 58.7452 709.255 48 696 48H677Z" fill="black"/>
</svg>
