<svg width="752" height="752" viewBox="0 0 752 752" fill="none" xmlns="http://www.w3.org/2000/svg">
<path d="M376 0C430.6 0 433.2 96 402 274C402 280.896 399.261 287.509 394.385 292.385C389.509 297.261 382.896 300 376 300C369.104 300 362.491 297.261 357.615 292.385C352.739 287.509 350 280.896 350 274C318.8 96 321.4 0 376 0Z" fill="black"/>
<path d="M641.872 110.128C680.48 148.736 614.437 218.457 466.51 322.26C461.634 327.136 455.021 329.875 448.125 329.875C441.229 329.875 434.616 327.136 429.74 322.26C424.864 317.384 422.125 310.771 422.125 303.875C422.125 296.979 424.864 290.366 429.74 285.49C533.543 137.564 603.264 71.5198 641.872 110.128Z" fill="black"/>
<path d="M752 376C752 430.6 656 433.2 478 402C471.104 402 464.491 399.261 459.615 394.385C454.739 389.509 452 382.896 452 376C452 369.104 454.739 362.491 459.615 357.615C464.491 352.739 471.104 350 478 350C656 318.8 752 321.4 752 376Z" fill="black"/>
<path d="M641.872 641.872C603.264 680.48 533.543 614.437 429.74 466.51C424.864 461.634 422.125 455.021 422.125 448.125C422.125 441.229 424.864 434.616 429.74 429.74C434.616 424.864 441.229 422.125 448.125 422.125C455.021 422.125 461.634 424.864 466.51 429.74C614.436 533.543 680.48 603.264 641.872 641.872Z" fill="black"/>
<path d="M376 752C321.4 752 318.8 656 350 478C350 471.104 352.739 464.491 357.615 459.615C362.491 454.739 369.104 452 376 452C382.896 452 389.509 454.739 394.385 459.615C399.261 464.491 402 471.104 402 478C433.2 656 430.6 752 376 752Z" fill="black"/>
<path d="M110.128 641.872C71.5197 603.264 137.563 533.543 285.49 429.74C290.366 424.864 296.979 422.125 303.875 422.125C310.771 422.125 317.384 424.864 322.26 429.74C327.136 434.616 329.875 441.229 329.875 448.125C329.875 455.021 327.136 461.634 322.26 466.51C218.457 614.436 148.736 680.48 110.128 641.872Z" fill="black"/>
<path d="M0 376C0 321.4 96 318.8 274 350C280.896 350 287.509 352.739 292.385 357.615C297.261 362.491 300 369.104 300 376C300 382.896 297.261 389.509 292.385 394.385C287.509 399.261 280.896 402 274 402C96 433.2 0 430.6 0 376Z" fill="black"/>
<path d="M110.128 110.128C148.736 71.5197 218.457 137.563 322.26 285.49C327.136 290.366 329.875 296.979 329.875 303.875C329.875 310.771 327.136 317.384 322.26 322.26C317.384 327.136 310.771 329.875 303.875 329.875C296.98 329.875 290.367 327.136 285.491 322.26C137.564 218.457 71.5201 148.736 110.128 110.128Z" fill="black"/>
</svg>
